
<svg xmlns="http://www.w3.org/2000/svg" viewBox="0 0 1000 1000"
  xmlns:xlink="http://www.w3.org/1999/xlink">
  <defs>
    <linearGradient id="fade" x1="5%" y1="0%" x2="25%" y2="0%" gradientUnits="userSpaceOnUse">
    <stop offset="0%" style="stop-color:#85A98F;stop-opacity:1" />
    <stop offset="100%" style="stop-color:#D3F1DF;stop-opacity:1" />
    </linearGradient>
  </defs>
  <!-- <rect x="0" y="0" height="100%" width="100%" fill="none" stroke="black" stroke-width="10"/> -->
  <g transform="scale(3.9)">
      <g id="grab" transform="translate(0 0)">
      <path d="
      M128 96
      m70,20
      h0
      a82.38,82.38,0,0,1,40,70.65
      v41.35
      m-61,0
      l-22.26 -34
      a20,20,0,0,1,34.64 -20
      l6.58 16.31
      v-120
      a8,8,0,0,0-8-8
      h-120
      a8,8,0,0,0,-8,8
      v120
      a8,8,0,0,0,8,8
      h87
      " fill="none" stroke="url(#fade)" stroke-linecap="round" stroke-linejoin="round" stroke-width="8"/>
      </g>
      <g id="photo" fill="url(#fade)" fill-rule="nonzero" >
        <path
        d="
        M168,170
        m-10 0
        h-70
        a8,8,0,0,1-8-8
        v-56
        a8,8,0,0,1,8,-8
        h16
        l8,-12
        h32
        l8,12
        h16
        a8,8,0,0,1,8,8
        v56
        z
        m-55,-36
        a 25 25 0 0 0 50 0
        a 25 25 0 0 0 -50 0
        m9,0
        a 16 16 0 0 0 32 0
        a 16 16 0 0 0 -32 0
        "/>
      </g>
    </g>
</svg>
